<svg xmlns="http://www.w3.org/2000/svg" xmlns:xlink="http://www.w3.org/1999/xlink" width="1920" zoomAndPan="magnify" viewBox="0 0 1440 899.99999" height="1200" preserveAspectRatio="xMidYMid meet" version="1.0"><defs><g/><clipPath id="464dc732cf"><rect x="0" width="640" y="0" height="169"/></clipPath></defs><g transform="matrix(1, 0, 0, 1, 430, 365)"><g clip-path="url(#464dc732cf)"><g fill="#000000" fill-opacity="1"><g transform="translate(0.951809, 136.615914)"><g><path d="M 43.4375 0 L 1.671875 -119.90625 L 17.9375 -119.90625 L 47.453125 -30.6875 L 52.15625 -14.59375 L 52.484375 -14.59375 C 54.390625 -21.75 55.957031 -27.113281 57.1875 -30.6875 L 86.359375 -119.90625 L 102.125 -119.90625 L 60.03125 0 Z M 43.4375 0 "/></g></g></g><g fill="#000000" fill-opacity="1"><g transform="translate(164.289034, 136.615914)"><g><path d="M 1 0 L 47.296875 -119.90625 L 57.1875 -119.90625 L 103.640625 0 L 94.578125 0 L 79.828125 -38.40625 L 24.65625 -38.40625 L 9.890625 0 Z M 45.78125 -93.40625 L 27.5 -45.78125 L 76.96875 -45.78125 L 58.859375 -93.40625 L 52.328125 -111.1875 L 51.984375 -111.1875 C 49.753906 -104.363281 47.6875 -98.4375 45.78125 -93.40625 Z M 45.78125 -93.40625 "/></g></g></g><g fill="#000000" fill-opacity="1"><g transform="translate(328.463329, 136.615914)"><g><path d="M 10.390625 0 L 10.390625 -119.90625 L 62.21875 -119.90625 C 73.0625 -119.90625 81.304688 -117.140625 86.953125 -111.609375 C 92.597656 -106.078125 95.421875 -98.164062 95.421875 -87.875 C 95.421875 -73.113281 88.878906 -63.664062 75.796875 -59.53125 L 75.796875 -59.03125 C 81.835938 -57.019531 86.113281 -53.523438 88.625 -48.546875 C 91.144531 -43.578125 92.570312 -36.171875 92.90625 -26.328125 C 93.46875 -11.234375 95.144531 -2.679688 97.9375 -0.671875 L 97.9375 0 L 88.546875 0 C 87.203125 -0.78125 86.25 -2.875 85.6875 -6.28125 C 85.132812 -9.695312 84.632812 -16.546875 84.1875 -26.828125 C 83.738281 -38.015625 81.582031 -45.59375 77.71875 -49.5625 C 73.863281 -53.53125 67.1875 -55.515625 57.6875 -55.515625 L 19.125 -55.515625 L 19.125 0 Z M 19.125 -112.1875 L 19.125 -63.21875 L 59.359375 -63.21875 C 68.191406 -63.21875 74.925781 -65.3125 79.5625 -69.5 C 84.207031 -73.695312 86.53125 -79.710938 86.53125 -87.546875 C 86.53125 -103.972656 78.09375 -112.1875 61.21875 -112.1875 Z M 19.125 -112.1875 "/></g></g></g><g fill="#000000" fill-opacity="1"><g transform="translate(491.128424, 136.615914)"><g><path d="M 10.390625 0 L 10.390625 -119.90625 L 19.125 -119.90625 L 19.125 -8.046875 L 83.6875 -8.046875 L 83.6875 0 Z M 10.390625 0 "/></g></g></g></g></g></svg>