<svg xmlns="http://www.w3.org/2000/svg" xmlns:xlink="http://www.w3.org/1999/xlink" width="1024" zoomAndPan="magnify" viewBox="0 0 768 767.999994" height="1024" preserveAspectRatio="xMidYMid meet" version="1.0"><defs><g/><clipPath id="975d907b93"><path d="M 384 0 C 171.921875 0 0 171.921875 0 384 C 0 596.078125 171.921875 768 384 768 C 596.078125 768 768 596.078125 768 384 C 768 171.921875 596.078125 0 384 0 Z M 384 0 " clip-rule="nonzero"/></clipPath><clipPath id="e20f703281"><path d="M 0 0 L 768 0 L 768 768 L 0 768 Z M 0 0 " clip-rule="nonzero"/></clipPath><clipPath id="ddf95aa7ca"><path d="M 384 0 C 171.921875 0 0 171.921875 0 384 C 0 596.078125 171.921875 768 384 768 C 596.078125 768 768 596.078125 768 384 C 768 171.921875 596.078125 0 384 0 Z M 384 0 " clip-rule="nonzero"/></clipPath><clipPath id="740a8422ce"><rect x="0" width="768" y="0" height="768"/></clipPath><clipPath id="a080dc901a"><rect x="0" width="670" y="0" height="363"/></clipPath></defs><g clip-path="url(#975d907b93)"><g transform="matrix(1, 0, 0, 1, 0, -0.000000000000057351)"><g clip-path="url(#740a8422ce)"><g clip-path="url(#e20f703281)"><g clip-path="url(#ddf95aa7ca)"><rect x="-168.96" width="1105.92" fill="#ebebeb" height="1105.919991" y="-168.959999" fill-opacity="1"/></g></g></g></g></g><g transform="matrix(1, 0, 0, 1, 44, 202)"><g clip-path="url(#a080dc901a)"><g fill="#000000" fill-opacity="1"><g transform="translate(9.194058, 261.685059)"><g><path d="M 146.6875 -189.109375 L 204.5 -189.109375 L 204.5 -186.40625 L 202.078125 -186.40625 C 197.929688 -186.40625 193.785156 -185.144531 189.640625 -182.625 C 185.503906 -180.101562 182.082031 -176.320312 179.375 -171.28125 L 115.359375 -29.984375 C 107.066406 -12.148438 102.648438 -0.351562 102.109375 5.40625 L 99.6875 5.40625 L 17.828125 -171.015625 C 15.117188 -176.054688 11.691406 -179.878906 7.546875 -182.484375 C 3.410156 -185.097656 -0.816406 -186.40625 -5.140625 -186.40625 L -7.296875 -186.40625 L -7.296875 -189.109375 L 78.609375 -189.109375 L 78.609375 -186.40625 L 76.453125 -186.40625 C 72.484375 -186.40625 69.550781 -185.1875 67.65625 -182.75 C 65.769531 -180.320312 64.828125 -178.023438 64.828125 -175.859375 C 64.828125 -173.703125 65.1875 -171.546875 65.90625 -169.390625 L 111.84375 -57.8125 L 159.390625 -169.390625 C 160.285156 -171.734375 160.734375 -173.9375 160.734375 -176 C 160.734375 -178.070312 159.785156 -180.320312 157.890625 -182.75 C 156.003906 -185.1875 153.082031 -186.40625 149.125 -186.40625 L 146.6875 -186.40625 Z M 146.6875 -189.109375 "/></g></g></g><g fill="#000000" fill-opacity="1"><g transform="translate(153.996425, 261.685059)"><g><path d="M 199.375 -2.703125 L 201.796875 -2.703125 L 201.796875 0 L 115.625 0 L 115.625 -2.703125 L 118.046875 -2.703125 C 122.015625 -2.703125 124.941406 -3.914062 126.828125 -6.34375 C 128.722656 -8.78125 129.671875 -11.078125 129.671875 -13.234375 C 129.671875 -15.398438 129.21875 -17.5625 128.3125 -19.71875 L 115.078125 -52.953125 L 51.859375 -52.953125 L 37.8125 -19.71875 C 36.914062 -17.375 36.46875 -15.164062 36.46875 -13.09375 C 36.46875 -11.03125 37.457031 -8.78125 39.4375 -6.34375 C 41.414062 -3.914062 44.390625 -2.703125 48.359375 -2.703125 L 50.515625 -2.703125 L 50.515625 0 L -7.296875 0 L -7.296875 -2.703125 L -4.875 -2.703125 C -0.726562 -2.703125 3.410156 -3.960938 7.546875 -6.484375 C 11.691406 -9.003906 15.117188 -12.785156 17.828125 -17.828125 L 80.234375 -159.125 C 88.691406 -176.957031 93.191406 -188.753906 93.734375 -194.515625 L 96.171875 -194.515625 L 176.40625 -18.375 C 179.101562 -13.144531 182.523438 -9.222656 186.671875 -6.609375 C 190.816406 -4.003906 195.050781 -2.703125 199.375 -2.703125 Z M 56.453125 -64.296875 L 110.484375 -64.296875 L 84.28125 -130.75 Z M 56.453125 -64.296875 "/></g></g></g><g fill="#000000" fill-opacity="1"><g transform="translate(326.624707, 261.685059)"><g><path d="M 85.90625 -177.21875 L 74.296875 -177.21875 C 73.929688 -177.21875 73.660156 -177.21875 73.484375 -177.21875 L 73.484375 -19.71875 C 73.660156 -15.039062 75.414062 -11.035156 78.75 -7.703125 C 82.082031 -4.367188 86.085938 -2.703125 90.765625 -2.703125 L 94.28125 -2.703125 L 94.28125 0 L 12.15625 0 L 12.15625 -2.703125 L 15.671875 -2.703125 C 22.148438 -2.703125 27.101562 -5.492188 30.53125 -11.078125 C 31.96875 -13.597656 32.773438 -16.390625 32.953125 -19.453125 L 32.953125 -169.390625 C 32.773438 -174.066406 31.019531 -178.070312 27.6875 -181.40625 C 24.351562 -184.738281 20.347656 -186.40625 15.671875 -186.40625 L 12.15625 -186.40625 L 12.15625 -189.109375 L 104.828125 -189.109375 C 122.296875 -189.109375 137.0625 -185.328125 149.125 -177.765625 C 155.25 -173.984375 160.113281 -168.710938 163.71875 -161.953125 C 167.320312 -155.203125 169.125 -146.378906 169.125 -135.484375 C 169.125 -124.585938 165.335938 -114.09375 157.765625 -104 C 150.203125 -93.914062 139.21875 -88.15625 124.8125 -86.71875 C 135.257812 -83.300781 144.445312 -75.378906 152.375 -62.953125 C 171.820312 -31.785156 186.226562 -13.234375 195.59375 -7.296875 C 200.269531 -4.410156 206.125 -2.878906 213.15625 -2.703125 L 213.15625 0 L 186.671875 0 C 171.003906 0 157.992188 -2.066406 147.640625 -6.203125 C 137.285156 -10.347656 129.132812 -17.644531 123.1875 -28.09375 C 119.769531 -34.039062 112.296875 -49.441406 100.765625 -74.296875 C 95.722656 -85.273438 89.597656 -91.304688 82.390625 -92.390625 L 82.390625 -95.09375 L 90.765625 -95.09375 C 98.867188 -95.09375 106.023438 -97.523438 112.234375 -102.390625 C 118.453125 -107.253906 122.644531 -115.175781 124.8125 -126.15625 C 125.53125 -129.945312 125.890625 -132.921875 125.890625 -135.078125 C 125.890625 -149.847656 122.914062 -160.519531 116.96875 -167.09375 C 111.03125 -173.664062 103.378906 -177.039062 94.015625 -177.21875 C 92.210938 -177.21875 89.507812 -177.21875 85.90625 -177.21875 Z M 85.90625 -177.21875 "/></g></g></g><g fill="#000000" fill-opacity="1"><g transform="translate(504.385895, 261.685059)"><g><path d="M 14.859375 -2.703125 C 19.535156 -2.703125 23.539062 -4.367188 26.875 -7.703125 C 30.207031 -11.035156 31.96875 -15.039062 32.15625 -19.71875 L 32.15625 -169.390625 C 31.96875 -174.066406 30.207031 -178.070312 26.875 -181.40625 C 23.539062 -184.738281 19.535156 -186.40625 14.859375 -186.40625 L 11.34375 -186.40625 L 11.34375 -189.109375 L 93.46875 -189.109375 L 93.203125 -186.40625 L 89.96875 -186.40625 C 85.28125 -186.40625 81.222656 -184.738281 77.796875 -181.40625 C 74.378906 -178.070312 72.671875 -174.066406 72.671875 -169.390625 L 72.671875 -11.609375 L 108.0625 -11.609375 C 121.207031 -11.609375 132.238281 -15.390625 141.15625 -22.953125 C 150.070312 -30.523438 156.691406 -41.242188 161.015625 -55.109375 L 163.71875 -55.109375 L 151.28125 0 L 11.34375 0 L 11.34375 -2.703125 Z M 14.859375 -2.703125 "/></g></g></g></g></g></svg>