<svg xmlns="http://www.w3.org/2000/svg" xmlns:xlink="http://www.w3.org/1999/xlink" width="256" zoomAndPan="magnify" viewBox="0 0 192 191.999996" height="256" preserveAspectRatio="xMidYMid meet" version="1.0"><defs><g/><clipPath id="42937cac87"><path d="M 9 0 L 183 0 C 185.386719 0 187.675781 0.949219 189.363281 2.636719 C 191.050781 4.324219 192 6.613281 192 9 L 192 183 C 192 187.96875 187.96875 192 183 192 L 9 192 C 6.613281 192 4.324219 191.050781 2.636719 189.363281 C 0.949219 187.675781 0 185.386719 0 183 L 0 9 C 0 4.03125 4.03125 0 9 0 Z M 9 0 " clip-rule="nonzero"/></clipPath><clipPath id="41bb120ae6"><rect x="0" width="156" y="0" height="192"/></clipPath></defs><g clip-path="url(#42937cac87)"><rect x="-19.2" width="230.4" fill="#f1f1f1" y="-19.2" height="230.399995" fill-opacity="1"/></g><g transform="matrix(1, 0, 0, 1, 18, 0)"><g clip-path="url(#41bb120ae6)"><g fill="#222222" fill-opacity="1"><g transform="translate(8.930243, 163.236918)"><g><path d="M 144.546875 -128.046875 L 142.8125 -128.046875 C 139.769531 -128.046875 136.726562 -127.140625 133.6875 -125.328125 C 130.65625 -123.523438 128.195312 -120.742188 126.3125 -116.984375 L 82.046875 -23.65625 C 75.671875 -9.769531 72.34375 -0.941406 72.0625 2.828125 L 70.109375 2.828125 L 12.375 -116.546875 C 8.46875 -124.210938 2.96875 -128.046875 -4.125 -128.046875 L -5.640625 -128.046875 L -5.640625 -130.21875 L 57.953125 -130.21875 L 57.953125 -128.265625 L 56.21875 -128.265625 C 53.46875 -128.265625 51.40625 -127.359375 50.03125 -125.546875 C 48.65625 -123.742188 47.96875 -122.082031 47.96875 -120.5625 C 47.96875 -119.039062 48.253906 -117.484375 48.828125 -115.890625 L 79.21875 -45.359375 L 110.25 -115.890625 C 110.976562 -117.628906 111.34375 -119.222656 111.34375 -120.671875 C 111.34375 -122.117188 110.65625 -123.742188 109.28125 -125.546875 C 107.90625 -127.359375 105.84375 -128.265625 103.09375 -128.265625 L 101.359375 -128.265625 L 101.359375 -130.21875 L 144.546875 -130.21875 Z M 144.546875 -128.046875 "/></g></g></g></g></g></svg>